<svg id="Layer_1" data-name="Layer 1" xmlns="http://www.w3.org/2000/svg" viewBox="0 0 44 40"><defs><style>.cls-1{fill:#fff;fill-rule:evenodd;}</style></defs><title>accounts-vector</title><path id="Forma_1" data-name="Forma 1" class="cls-1" d="M40.34,31.19l-7-3.47A1.91,1.91,0,0,1,32.27,26V23.54c.16-.2.34-.44.52-.69A16.87,16.87,0,0,0,35,18.63,2.9,2.9,0,0,0,36.67,16V13.09a2.94,2.94,0,0,0-.74-1.91V7.31A6.45,6.45,0,0,0,34.4,2.57C32.89.87,30.45,0,27.13,0s-5.76.86-7.26,2.57a6.38,6.38,0,0,0-1.52,3.5,9.39,9.39,0,0,0-4.42-1c-7.62,0-8.06,6.44-8.06,6.54V15a2.53,2.53,0,0,0-.74,1.7v2.51a2.61,2.61,0,0,0,1,2,11.09,11.09,0,0,0,2.68,4.57v2a1.59,1.59,0,0,1-.86,1.39L3,32.19a5.75,5.75,0,0,0-3,5.06V40H44V37.06A6.53,6.53,0,0,0,40.34,31.19ZM10.27,36.92v1.62H1.47v-1.3a4.32,4.32,0,0,1,2.3-3.81l4.88-3a3,3,0,0,0,1.58-2.65V25.14L10,24.92a9.68,9.68,0,0,1-2.54-4.33l-.07-.29-.25-.16a1.15,1.15,0,0,1-.54-1V16.66a1.24,1.24,0,0,1,.49-.85l.24-.22V11.68c0-.21.4-5.13,6.6-5.13a7.62,7.62,0,0,1,4.4,1.2v3.44a2.84,2.84,0,0,0-.73,1.91V16a3.5,3.5,0,0,0,.07.65,2.34,2.34,0,0,0,.09.24,2.32,2.32,0,0,0,.13.37h0a2.91,2.91,0,0,0,.81,1v0c0,.17.09.34.14.5l.06.19,0,.1c0,.08,0,.16.08.23s.09.26.14.4.05.12.07.17.12.3.19.45,0,.07,0,.11l0,.09.06.12c.07.15.14.3.22.45l0,.07.14.27.23.42.12.2c.1.18.2.35.3.5l.06.1c.18.28.33.5.46.67a.94.94,0,0,1,.09.12l.06.07v2.41a1.92,1.92,0,0,1-1,1.69l-1.94,1.05-.34,0-.14.29-4.13,2.23A6.53,6.53,0,0,0,10.27,36.92Zm32.26,1.62H11.73V36.92a5.11,5.11,0,0,1,2.69-4.49L21,28.9a3.38,3.38,0,0,0,1.77-3V23h0l-.14-.17,0,0-.12-.16h0a1.89,1.89,0,0,1-.14-.19h0c-.11-.15-.25-.34-.4-.58h0l-.23-.36s0,0,0,0c-.17-.28-.34-.59-.52-.94h0c-.09-.18-.19-.38-.28-.58h0a.36.36,0,0,0,0-.09h0l-.12-.28s0-.07,0-.11-.08-.19-.12-.3-.15-.4-.21-.62l0-.12,0-.05c-.07-.23-.13-.46-.19-.71L20,17.39l-.25-.16A1.46,1.46,0,0,1,19.07,16V13.1A1.41,1.41,0,0,1,19.56,12l.24-.22V7h0A5.07,5.07,0,0,1,21,3.53c1.22-1.37,3.29-2.07,6.16-2.07s4.94.69,6.15,2.06a5.08,5.08,0,0,1,1.19,3.66V11.8l.24.22a1.42,1.42,0,0,1,.49,1.07V16a1.45,1.45,0,0,1-1,1.38l-.37.11-.12.36A15,15,0,0,1,31.6,22a9.22,9.22,0,0,1-.62.78L30.8,23v3a3.37,3.37,0,0,0,1.88,3l7,3.47a5.1,5.1,0,0,1,2.84,4.57v1.48Z" transform="translate(0 0)"/></svg>