<svg id="Layer_1" data-name="Layer 1" xmlns="http://www.w3.org/2000/svg" viewBox="0 0 17.62 19.99"><defs><style>.cls-1{fill:#fff;fill-rule:evenodd;}</style></defs><title>logout-vector</title><path id="Forma_1" data-name="Forma 1" class="cls-1" d="M9,9.94a.71.71,0,0,1-.69-.7h0V.7A.69.69,0,1,1,9.69.7h0V9.23A.7.7,0,0,1,9,9.94ZM9,20A9,9,0,0,1,6.52,2.41a.68.68,0,0,1,.85.46v0a.71.71,0,0,1-.47.88A7.6,7.6,0,0,0,1.58,11a7.42,7.42,0,1,0,14.84.3V11a7.6,7.6,0,0,0-5.33-7.26.71.71,0,0,1-.47-.88.69.69,0,0,1,.84-.48h0A9,9,0,0,1,9,20Z" transform="translate(-0.18 -0.01)"/></svg>