<svg id="Layer_1" data-name="Layer 1" xmlns="http://www.w3.org/2000/svg" viewBox="0 0 18 18"><defs><style>.cls-1{fill:#fff;fill-rule:evenodd;}</style></defs><title>store (3)</title><path id="Forma_1" data-name="Forma 1" class="cls-1" d="M17.83,6l0-.11s0,0,0,0L15.84.42A.66.66,0,0,0,15.23,0H2.75a.65.65,0,0,0-.6.42L.22,5.8a.54.54,0,0,0,0,.1l-.07.19a.4.4,0,0,0,0,.15A2.37,2.37,0,0,0,0,6.89,2.7,2.7,0,0,0,1.79,9.44v7.92a.63.63,0,0,0,.62.64H15.83a.63.63,0,0,0,.63-.62v-8A2.73,2.73,0,0,0,18,6.89a2.33,2.33,0,0,0-.08-.59A.85.85,0,0,0,17.83,6ZM15.17,16.73H3.06V9.58l.11,0a2.72,2.72,0,0,0,1.65-.94,2.71,2.71,0,0,0,2.09,1A2.74,2.74,0,0,0,9,8.63a2.73,2.73,0,0,0,4.17,0,2.69,2.69,0,0,0,1.4.88h0l.2.05h.11l.15,0h.11v7.12Zm.5-8.45h0l-.2.05h-.2a1.27,1.27,0,0,1-.28,0,1.16,1.16,0,0,1-.22-.06l0,0A1.47,1.47,0,0,1,13.83,7V6.89a.64.64,0,0,0-.64-.64.64.64,0,0,0-.63.64h0a.28.28,0,0,1,0,.09V7a1.48,1.48,0,0,1-.92,1.24h0l-.23.07a1.32,1.32,0,0,1-.56,0l-.21-.07,0,0A1.47,1.47,0,0,1,9.66,7V7s0,0,0-.08A.64.64,0,0,0,9,6.25a.64.64,0,0,0-.64.64.14.14,0,0,1,0,.09V7a1.49,1.49,0,0,1-.91,1.24h0l-.24.07-.27,0-.28,0L6.4,8.25l0,0A1.5,1.5,0,0,1,5.45,7V6.89a.63.63,0,1,0-1.26,0,.29.29,0,0,1,0,.09V7a1.46,1.46,0,0,1-.91,1.23l0,0A.79.79,0,0,1,3,8.31l-.27,0H2.58l-.06,0h0a1.45,1.45,0,0,1-1.2-1.44,1.39,1.39,0,0,1,.06-.4s0,0,0-.06L3.2,1.25H14.79l1.8,5s0,0,0,0l0,.09s0,0,0,.06a1.12,1.12,0,0,1,.07.4A1.49,1.49,0,0,1,15.67,8.28Z" transform="translate(0 0)"/></svg>