<svg xmlns="http://www.w3.org/2000/svg" xmlns:xlink="http://www.w3.org/1999/xlink" viewBox="0 0 185.58 163.35"><defs><style>.cls-1{fill:url(#linear-gradient);}.cls-2{fill:url(#linear-gradient-2);}.cls-3{fill:#23049d;}.cls-4{fill:#fff;}.cls-4,.cls-5{stroke:#000;stroke-miterlimit:10;stroke-width:4px;}.cls-6{fill:url(#linear-gradient-3);}.cls-7{fill:url(#radial-gradient);}.cls-8{fill:url(#linear-gradient-4);}</style><linearGradient id="linear-gradient" y1="32.5" x2="181.95" y2="32.5" gradientUnits="userSpaceOnUse"><stop offset="0" stop-color="#23049d"/><stop offset="1" stop-color="#aa2ee6"/></linearGradient><linearGradient id="linear-gradient-2" x1="179.23" y1="106.59" x2="179.23" y2="26" xlink:href="#linear-gradient"/><linearGradient id="linear-gradient-3" x1="89.5" y1="71" x2="30.11" y2="71" xlink:href="#linear-gradient"/><radialGradient id="radial-gradient" cx="92" cy="148.5" r="14.85" gradientTransform="translate(-78.06 108.55) rotate(-45)" gradientUnits="userSpaceOnUse"><stop offset="0" stop-color="#aa2ee6"/><stop offset="1" stop-color="#233e8b"/></radialGradient><linearGradient id="linear-gradient-4" x1="-369.96" y1="70.44" x2="-429.35" y2="70.44" gradientTransform="matrix(-1, 0, 0, 1, -275.46, 0)" xlink:href="#linear-gradient"/></defs><title>Asset 2</title><g id="Layer_2" data-name="Layer 2"><g id="Layer_1-2" data-name="Layer 1"><polygon class="cls-1" points="91.5 65 0 26.99 91.5 0 181.95 26.99 91.5 65"/><polygon class="cls-2" points="181.95 106.59 176.9 106.59 176.5 26 181.95 26.99 181.95 106.59"/><path class="cls-3" d="M174.73,108.65l-1.52,4.59a3.19,3.19,0,0,0-.18.8c-.13,1.31,0,4.8,5.13,5.82,4.57.91,6.5-2.81,7.21-4.93a3.89,3.89,0,0,0,0-2.5l-1.26-3.78a3.93,3.93,0,0,0-3.74-2.69h-1.9A4,4,0,0,0,174.73,108.65Z"/><circle class="cls-4" cx="59" cy="117.5" r="24.5"/><circle class="cls-5" cx="59.5" cy="118" r="12"/><circle class="cls-4" cx="61.74" cy="116.02" r="7.76"/><circle class="cls-4" cx="124.48" cy="116.76" r="24.5"/><circle class="cls-5" cx="124.98" cy="117.26" r="12"/><circle class="cls-4" cx="122.22" cy="115.29" r="7.76"/><polygon class="cls-6" points="89.5 66.9 89.5 99 30.11 74.48 31.5 43 89.5 66.9"/><rect class="cls-7" x="81.5" y="138" width="21" height="21" transform="translate(131.95 -21.56) rotate(45)"/><polygon class="cls-8" points="94.5 66.34 94.5 98.44 153.89 73.92 152.5 42.44 94.5 66.34"/></g></g></svg>