<svg xmlns="http://www.w3.org/2000/svg" xmlns:xlink="http://www.w3.org/1999/xlink" viewBox="0 0 369.25 108.95"><defs><style>.cls-1{fill:url(#linear-gradient);}.cls-2{fill:url(#linear-gradient-2);}.cls-3{fill:#23049d;}.cls-4,.cls-5{fill:#fff;}.cls-4{stroke:#000;stroke-miterlimit:10;stroke-width:2px;}.cls-6{fill:url(#linear-gradient-3);}.cls-7{fill:url(#radial-gradient);}.cls-8{fill:url(#linear-gradient-4);}</style><linearGradient id="linear-gradient" x1="262.9" y1="11.54" x2="327.51" y2="11.54" gradientUnits="userSpaceOnUse"><stop offset="0" stop-color="#23049d"/><stop offset="1" stop-color="#aa2ee6"/></linearGradient><linearGradient id="linear-gradient-2" x1="326.54" y1="37.85" x2="326.54" y2="9.23" xlink:href="#linear-gradient"/><linearGradient id="linear-gradient-3" x1="294.68" y1="25.21" x2="273.6" y2="25.21" xlink:href="#linear-gradient"/><radialGradient id="radial-gradient" cx="296.49" cy="52.73" r="5.27" gradientTransform="translate(49.56 225.09) rotate(-45)" gradientUnits="userSpaceOnUse"><stop offset="0" stop-color="#aa2ee6"/><stop offset="1" stop-color="#233e8b"/></radialGradient><linearGradient id="linear-gradient-4" x1="-541.19" y1="25.01" x2="-562.28" y2="25.01" gradientTransform="matrix(-1, 0, 0, 1, -244.73, 0)" xlink:href="#linear-gradient"/></defs><title>Asset 2</title><g id="Layer_2" data-name="Layer 2"><g id="Layer_1-2" data-name="Layer 1"><polygon class="cls-1" points="295.39 23.08 262.9 9.58 295.39 0 327.51 9.58 295.39 23.08"/><polygon class="cls-2" points="327.51 37.85 325.71 37.85 325.57 9.23 327.51 9.58 327.51 37.85"/><path class="cls-3" d="M325.86,38.58l-.54,1.63a1.27,1.27,0,0,0-.06.28c-.05.47,0,1.71,1.82,2.07a2.22,2.22,0,0,0,2.56-1.75,1.36,1.36,0,0,0,0-.89l-.45-1.34a1.4,1.4,0,0,0-1.32-1h-.68A1.42,1.42,0,0,0,325.86,38.58Z" transform="translate(-0.92)"/><circle class="cls-4" cx="308.88" cy="41.46" r="8.7"/><circle cx="309.19" cy="41.41" r="4.75"/><circle class="cls-5" cx="307.53" cy="40.39" r="1.86"/><polygon class="cls-6" points="294.68 23.75 294.68 35.15 273.6 26.45 274.09 15.27 294.68 23.75"/><rect class="cls-7" x="292.76" y="49" width="7.46" height="7.46" transform="translate(123.2 -194.21) rotate(45)"/><polygon class="cls-8" points="296.46 23.55 296.46 34.95 317.54 26.25 317.05 15.07 296.46 23.55"/><text x="-0.92"/><circle class="cls-4" cx="282.42" cy="42.03" r="8.7"/><circle cx="282.11" cy="41.99" r="4.75"/><circle class="cls-5" cx="283.76" cy="40.97" r="1.86"/><path d="M19.44,57.74H.92V46.94H51.08v10.8H32.63v50.15H19.44Z" transform="translate(-0.92)"/><path d="M91.88,94.59c0,4.41,0,9.21.09,13.3H79.55c-.18-1.23-.26-3.68-.34-5.28-2.71,4.6-6.76,6.34-12.6,6.34-9.32,0-15.28-5.66-15.28-17V62.13H64V89.4c0,5,1.57,9.23,7.05,9.23,5.78,0,8.17-3.08,8.17-12.15V62.13H91.88Z" transform="translate(-0.92)"/><path d="M99.54,62.13h7.06V49.74h12.67V62.13h9v9.52h-9V94.24c0,3.47,1.06,4.82,4.84,4.82a23.46,23.46,0,0,0,2.88-.14v8.72c-2.51.85-6,.87-8.51.87-8.93,0-11.88-4.78-11.88-12.78V71.65H99.54Z" transform="translate(-0.92)"/><path d="M177.78,84.92c0,13.85-8.29,24-22.78,24-14.2,0-22.48-10.12-22.48-23.78,0-14.13,8.54-24.1,23.07-24.1C169.07,61.07,177.78,70.57,177.78,84.92Zm-32.4.09c0,8.81,3.79,14,9.89,14s9.65-5.23,9.65-14c0-9.58-3.51-14.11-9.82-14.11C149.22,71,145.38,75.33,145.38,85Z" transform="translate(-0.92)"/><path d="M186.47,74.54c0-4.54,0-8.58-.08-12.41h12.42c.17,1,.33,5.57.33,8,2-5.23,6.9-9,14.69-9.09V73.16c-9.2-.24-14.69,2.23-14.69,14.78v20H186.47Z" transform="translate(-0.92)"/><path class="cls-3" d="M222.52,46.94h25.22c12.95,0,21.74,7.29,21.74,18.87,0,13.24-10,19.32-22.05,19.32H235.71v22.76H222.52Zm13.19,27.7h10.06c6.1,0,10.41-2.35,10.41-8.57s-4.55-8.64-10.13-8.64H235.71Z" transform="translate(-0.92)"/><path class="cls-3" d="M318.87,84.92c0,13.85-8.29,24-22.78,24-14.2,0-22.48-10.12-22.48-23.78,0-14.13,8.54-24.1,23.07-24.1C310.15,61.07,318.87,70.57,318.87,84.92Zm-32.4.09c0,8.81,3.79,14,9.89,14s9.65-5.23,9.65-14C306,75.51,302.5,71,296.19,71,290.31,71,286.47,75.33,286.47,85Z" transform="translate(-0.92)"/><path class="cls-3" d="M370.08,43.36v52c0,4.16,0,8.38.09,12.57H358c-.26-1.37-.5-3.74-.58-4.78-2.21,3.6-6.15,5.84-13,5.84-11.58,0-18.94-9.29-18.94-23.57,0-14.08,7.83-24.31,20.79-24.31,6.58,0,10.12,2.32,11.13,4.37V43.36ZM338.5,85.05c0,8.92,3.48,13.75,9.68,13.75,8.72,0,9.72-7.26,9.72-13.84,0-7.82-1.11-13.74-9.39-13.74C341.86,71.22,338.5,76.41,338.5,85.05Z" transform="translate(-0.92)"/></g></g></svg>