<svg id="Layer_1" data-name="Layer 1" xmlns="http://www.w3.org/2000/svg" xmlns:xlink="http://www.w3.org/1999/xlink" viewBox="0 0 185.58 210.7"><defs><style>.cls-1{fill:url(#linear-gradient);}.cls-2{fill:url(#linear-gradient-2);}.cls-3,.cls-5{fill:#fff;}.cls-3,.cls-5,.cls-6,.cls-9{stroke:#000;}.cls-10,.cls-12,.cls-3,.cls-5,.cls-6,.cls-9{stroke-miterlimit:10;}.cls-4{fill:#23049d;}.cls-5,.cls-6{stroke-width:4px;}.cls-7{fill:url(#linear-gradient-3);}.cls-8{fill:url(#radial-gradient);}.cls-10,.cls-12,.cls-9{fill:none;stroke-width:7px;}.cls-10{stroke:url(#linear-gradient-4);}.cls-11{fill:url(#linear-gradient-5);}.cls-12{stroke:url(#linear-gradient-6);}</style><linearGradient id="linear-gradient" y1="32.5" x2="181.95" y2="32.5" gradientUnits="userSpaceOnUse"><stop offset="0" stop-color="#23049d"/><stop offset="1" stop-color="#aa2ee6"/></linearGradient><linearGradient id="linear-gradient-2" x1="179.23" y1="106.59" x2="179.23" y2="26" xlink:href="#linear-gradient"/><linearGradient id="linear-gradient-3" x1="89.5" y1="71" x2="30.11" y2="71" xlink:href="#linear-gradient"/><radialGradient id="radial-gradient" cx="339.5" cy="322.5" r="14.85" gradientTransform="translate(-128.6 334.52) rotate(-45)" gradientUnits="userSpaceOnUse"><stop offset="0" stop-color="#aa2ee6"/><stop offset="1" stop-color="#233e8b"/></radialGradient><linearGradient id="linear-gradient-4" x1="251.99" y1="334.27" x2="322.77" y2="375.13" gradientUnits="userSpaceOnUse"><stop offset="0.09" stop-color="#aa2ee6"/><stop offset="0.15" stop-color="#9828dc"/><stop offset="0.34" stop-color="#6619c1"/><stop offset="0.5" stop-color="#420dae"/><stop offset="0.64" stop-color="#2b07a1"/><stop offset="0.72" stop-color="#23049d"/><stop offset="0.76" stop-color="#210496"/><stop offset="0.81" stop-color="#1d0382"/><stop offset="0.87" stop-color="#160262"/><stop offset="0.93" stop-color="#0c0135"/><stop offset="1"/></linearGradient><linearGradient id="linear-gradient-5" x1="337.54" y1="244.44" x2="278.15" y2="244.44" gradientTransform="matrix(-1, 0, 0, 1, 432.04, -174)" xlink:href="#linear-gradient"/><linearGradient id="linear-gradient-6" x1="433.64" y1="334.05" x2="504.42" y2="374.91" gradientTransform="matrix(-1, 0, 0, 1, 863.26, 0)" xlink:href="#linear-gradient-4"/></defs><title>TutorPod</title><polygon class="cls-1" points="91.5 65 0 26.99 91.5 0 181.95 26.99 91.5 65"/><polygon class="cls-2" points="181.95 106.59 176.9 106.59 176.5 26 181.95 26.99 181.95 106.59"/><path class="cls-3" d="M425.66,280.59" transform="translate(-247.5 -174)"/><path class="cls-4" d="M422.23,282.65l-1.52,4.59a3.19,3.19,0,0,0-.18.8c-.13,1.31,0,4.8,5.13,5.82,4.57.91,6.5-2.81,7.21-4.93a3.89,3.89,0,0,0,0-2.5l-1.26-3.78a3.93,3.93,0,0,0-3.74-2.69H426A4,4,0,0,0,422.23,282.65Z" transform="translate(-247.5 -174)"/><circle class="cls-5" cx="59" cy="117.5" r="24.5"/><circle class="cls-6" cx="59.5" cy="118" r="12"/><circle class="cls-5" cx="61.74" cy="116.02" r="7.76"/><circle class="cls-5" cx="124.48" cy="116.76" r="24.5"/><circle class="cls-6" cx="124.98" cy="117.26" r="12"/><circle class="cls-5" cx="122.22" cy="115.29" r="7.76"/><polygon class="cls-7" points="89.5 66.9 89.5 99 30.11 74.48 31.5 43 89.5 66.9"/><rect class="cls-8" x="329" y="312" width="21" height="21" transform="translate(79.98 -319.6) rotate(45)"/><path class="cls-9" d="M354,384.7c0-10.7,0-22.7,4-33.7,5-11,13-20,24-25,16-7,33-9,50-7" transform="translate(-247.5 -174)"/><path class="cls-9" d="M250,319a100,100,0,0,1,27.81.53c16.72,2.57,33.3,10,42.38,24.92,7.49,12.34,7.81,26.23,7.81,40.25" transform="translate(-247.5 -174)"/><path class="cls-10" d="M252,338.56a74.83,74.83,0,0,1,20.55.21c12.73,1.8,25.33,7.16,33,17.86,5.79,8.06,8.09,18,8.39,27.81" transform="translate(-247.5 -174)"/><polygon class="cls-11" points="94.5 66.34 94.5 98.44 153.89 73.92 152.5 42.44 94.5 66.34"/><path class="cls-12" d="M429.61,338.33a74.84,74.84,0,0,0-20.55.22c-12.73,1.8-25.32,7.15-33,17.86-5.8,8.06-8.1,18-8.39,27.81" transform="translate(-247.5 -174)"/></svg>